<svg width="1184" height="299" viewBox="961 938 1184 299" fill="none" xmlns="http://www.w3.org/2000/svg" xmlns:xlink="http://www.w3.org/1999/xlink"> 
    <rect x="961" y="938" width="1184" height="299" fill="transparent"/>
    <path d="M1035.63 1236.3V1201.5H998.728V972.3H1035.63V938.1H960.928V1236.3H1035.63ZM1127.17 1111.5C1127.17 1083.6 1143.97 1065.9 1166.77 1065.9C1189.57 1065.9 1205.17 1083.3 1205.17 1111.2C1205.17 1139.1 1189.27 1158 1166.47 1158C1142.77 1158 1127.17 1139.4 1127.17 1111.5ZM1238.77 967.8H1204.87V1056C1200.37 1046.7 1187.47 1035 1161.97 1035C1120.87 1035 1092.37 1069.5 1092.37 1111.5C1092.37 1155.6 1120.57 1188.6 1162.57 1188.6C1183.27 1188.6 1198.57 1178.4 1205.47 1166.1C1205.47 1172.1 1206.37 1181.7 1206.97 1185H1240.27C1239.97 1182.6 1238.77 1171.5 1238.77 1158.3V967.8ZM1283.03 1162.8C1283.03 1176 1293.83 1186.8 1307.33 1186.8C1320.53 1186.8 1331.63 1176 1331.63 1162.8C1331.63 1149.3 1320.53 1138.5 1307.33 1138.5C1293.83 1138.5 1283.03 1149.3 1283.03 1162.8ZM1282.73 1061.4C1282.73 1074.6 1293.53 1085.4 1307.03 1085.4C1320.23 1085.4 1331.33 1074.6 1331.33 1061.4C1331.33 1047.9 1320.23 1037.1 1307.03 1037.1C1293.53 1037.1 1282.73 1047.9 1282.73 1061.4ZM1409.56 1099.2C1410.16 1080.6 1420.66 1066.2 1439.86 1066.2C1461.76 1066.2 1469.86 1080.6 1469.86 1098.6V1185H1504.66V1092.6C1504.66 1060.5 1487.26 1034.7 1451.26 1034.7C1435.96 1034.7 1419.46 1040.1 1409.56 1053V967.8H1374.76V1185H1409.56V1099.2ZM1538.03 1145.4C1538.03 1168.5 1556.93 1189.5 1587.53 1189.5C1611.23 1189.5 1625.63 1177.5 1632.53 1166.4C1632.53 1178.1 1633.73 1184.1 1634.03 1185H1666.43C1666.13 1183.5 1664.63 1174.8 1664.63 1161.6V1089C1664.63 1059.9 1647.53 1034.4 1602.53 1034.4C1566.53 1034.4 1543.73 1056.9 1541.03 1082.1L1572.83 1089.3C1574.33 1074.6 1584.53 1062.9 1602.83 1062.9C1622.03 1062.9 1630.43 1072.8 1630.43 1085.1C1630.43 1090.2 1628.03 1094.4 1619.63 1095.6L1582.13 1101.3C1557.23 1104.9 1538.03 1119.3 1538.03 1145.4ZM1594.13 1162.2C1580.33 1162.2 1572.83 1153.2 1572.83 1143.3C1572.83 1131.3 1581.53 1125.3 1592.33 1123.5L1630.43 1117.8V1124.4C1630.43 1152.9 1613.63 1162.2 1594.13 1162.2ZM1770 1066.5C1792.2 1066.5 1802.1 1080.9 1805.4 1093.8L1836.6 1082.4C1830.6 1059 1809 1034.4 1769.7 1034.4C1727.7 1034.4 1695 1066.8 1695 1111.8C1695 1156.2 1727.7 1189.5 1770.6 1189.5C1809 1189.5 1830.9 1164.6 1837.8 1141.8L1807.2 1130.7C1803.9 1141.8 1793.4 1157.7 1770.6 1157.7C1748.7 1157.7 1729.8 1141.2 1729.8 1111.8C1729.8 1082.4 1748.7 1066.5 1770 1066.5ZM2005.51 1038.9H1959.31L1903.21 1098V967.8H1868.71V1185H1903.21V1144.2L1921.21 1125.3L1964.11 1185H2006.71L1945.51 1100.7L2005.51 1038.9ZM2145.3 1236.3V938.1H2070.3V972.3H2107.5V1201.5H2070.3V1236.3H2145.3Z" fill="url(#paint0_angular_218_8940)"/>
    <!-- <path d="M1035.63 1675.3V1640.5H998.728V1411.3H1035.63V1377.1H960.928V1675.3H1035.63ZM1127.17 1550.5C1127.17 1522.6 1143.97 1504.9 1166.77 1504.9C1189.57 1504.9 1205.17 1522.3 1205.17 1550.2C1205.17 1578.1 1189.27 1597 1166.47 1597C1142.77 1597 1127.17 1578.4 1127.17 1550.5ZM1238.77 1406.8H1204.87V1495C1200.37 1485.7 1187.47 1474 1161.97 1474C1120.87 1474 1092.37 1508.5 1092.37 1550.5C1092.37 1594.6 1120.57 1627.6 1162.57 1627.6C1183.27 1627.6 1198.57 1617.4 1205.47 1605.1C1205.47 1611.1 1206.37 1620.7 1206.97 1624H1240.27C1239.97 1621.6 1238.77 1610.5 1238.77 1597.3V1406.8ZM1283.03 1601.8C1283.03 1615 1293.83 1625.8 1307.33 1625.8C1320.53 1625.8 1331.63 1615 1331.63 1601.8C1331.63 1588.3 1320.53 1577.5 1307.33 1577.5C1293.83 1577.5 1283.03 1588.3 1283.03 1601.8ZM1282.73 1500.4C1282.73 1513.6 1293.53 1524.4 1307.03 1524.4C1320.23 1524.4 1331.33 1513.6 1331.33 1500.4C1331.33 1486.9 1320.23 1476.1 1307.03 1476.1C1293.53 1476.1 1282.73 1486.9 1282.73 1500.4ZM1409.56 1538.2C1410.16 1519.6 1420.66 1505.2 1439.86 1505.2C1461.76 1505.2 1469.86 1519.6 1469.86 1537.6V1624H1504.66V1531.6C1504.66 1499.5 1487.26 1473.7 1451.26 1473.7C1435.96 1473.7 1419.46 1479.1 1409.56 1492V1406.8H1374.76V1624H1409.56V1538.2ZM1538.03 1584.4C1538.03 1607.5 1556.93 1628.5 1587.53 1628.5C1611.23 1628.5 1625.63 1616.5 1632.53 1605.4C1632.53 1617.1 1633.73 1623.1 1634.03 1624H1666.43C1666.13 1622.5 1664.63 1613.8 1664.63 1600.6V1528C1664.63 1498.9 1647.53 1473.4 1602.53 1473.4C1566.53 1473.4 1543.73 1495.9 1541.03 1521.1L1572.83 1528.3C1574.33 1513.6 1584.53 1501.9 1602.83 1501.9C1622.03 1501.9 1630.43 1511.8 1630.43 1524.1C1630.43 1529.2 1628.03 1533.4 1619.63 1534.6L1582.13 1540.3C1557.23 1543.9 1538.03 1558.3 1538.03 1584.4ZM1594.13 1601.2C1580.33 1601.2 1572.83 1592.2 1572.83 1582.3C1572.83 1570.3 1581.53 1564.3 1592.33 1562.5L1630.43 1556.8V1563.4C1630.43 1591.9 1613.63 1601.2 1594.13 1601.2ZM1770 1505.5C1792.2 1505.5 1802.1 1519.9 1805.4 1532.8L1836.6 1521.4C1830.6 1498 1809 1473.4 1769.7 1473.4C1727.7 1473.4 1695 1505.8 1695 1550.8C1695 1595.2 1727.7 1628.5 1770.6 1628.5C1809 1628.5 1830.9 1603.6 1837.8 1580.8L1807.2 1569.7C1803.9 1580.8 1793.4 1596.7 1770.6 1596.7C1748.7 1596.7 1729.8 1580.2 1729.8 1550.8C1729.8 1521.4 1748.7 1505.5 1770 1505.5ZM2005.51 1477.9H1959.31L1903.21 1537V1406.8H1868.71V1624H1903.21V1583.2L1921.21 1564.3L1964.11 1624H2006.71L1945.51 1539.7L2005.51 1477.9ZM2145.3 1675.3V1377.1H2070.3V1411.3H2107.5V1640.5H2070.3V1675.3H2145.3Z" fill="black"/> -->
    <defs>
      <radialGradient id="paint0_angular_218_8940" cx="0" cy="0" r="1" gradientUnits="userSpaceOnUse" gradientTransform="translate(1524 1109.5) rotate(90) scale(249 845.29)">
        <stop offset="0.0625" stop-color="#FF2E00"/>
        <stop offset="0.333333" stop-color="#FFC700"/>
        <stop offset="0.510788" stop-color="#05FF00"/>
        <stop offset="0.625" stop-color="#000AFF"/>
        <stop offset="0.755208" stop-color="#7000FF"/>
        <stop offset="0.802083" stop-color="#7000FF"/>
        <stop offset="0.98976" stop-color="#FF0000"/>
      </radialGradient>
    </defs>  
  </svg>  