<?xml version="1.0" encoding="UTF-8"?>
<svg width="700pt" height="700pt" version="1.1" viewBox="0 0 700 700" xmlns="http://www.w3.org/2000/svg" xmlns:xlink="http://www.w3.org/1999/xlink">
 <g>
  <path d="m621.25 271.26h-72.117l28.188-36.562c2.9531-3.8281 2.2383-9.3203-1.5781-12.273-3.8281-2.9492-9.3242-2.25-12.281 1.5898l-36.43 47.246h-37.121l32.906-44.945c2.8516-3.8984 2.0117-9.375-1.8906-12.227-3.9102-2.8516-9.375-2.0078-12.227 1.8906l-40.488 55.285h-39.801l34.605-47.262c2.0508-2.8008 2.2578-6.5391 0.51953-9.5469-1.7383-3.0039-5.1016-4.6914-8.5234-4.3242l-58.223 6.332 20.027-34.703 67.848-7.375c4.8086-0.51953 8.2773-4.8398 7.75-9.6484-0.51953-4.8047-4.8516-8.2773-9.6367-7.7539l-55.117 5.9922 18.766-32.508 58.211-7.8008c4.7969-0.64453 8.1523-5.043 7.5117-9.8359-0.64063-4.7969-5.0586-8.1289-9.8359-7.5117l-44.836 6.0117 35.727-61.871c2.4141-4.1875 0.98438-9.5391-3.2031-11.953-4.1953-2.4297-9.5391-0.98438-11.953 3.2031l-35.98 62.32-17.535-42.613c-1.8438-4.4688-6.9375-6.6055-11.418-4.7617-4.4688 1.8359-6.6016 6.9531-4.7656 11.422l22.676 55.09-18.559 32.148-22.449-50.887c-1.9453-4.418-7.1094-6.4219-11.547-4.4766-4.418 1.9531-6.4219 7.1133-4.4688 11.535l27.613 62.605-19.98 34.609-23.621-53.59c-1.3945-3.1758-4.5352-5.2188-8.0078-5.2188-3.4648 0-6.6055 2.0469-8.0078 5.2188l-23.625 53.59-19.98-34.609 27.602-62.605c1.9531-4.418-0.058594-9.5859-4.4766-11.535-4.4141-1.9531-9.5859 0.050781-11.535 4.4766l-22.43 50.883-18.766-32.496 22.406-54.477c1.8359-4.4688-0.29297-9.582-4.7656-11.418-4.4766-1.8477-9.582 0.29297-11.418 4.7656l-17.273 41.992-35.781-61.957c-2.4102-4.1836-7.7656-5.625-11.953-3.2031-4.1875 2.4141-5.6172 7.7656-3.2031 11.953l35.926 62.234-45.504-6.1094c-4.8008-0.63281-9.1914 2.7227-9.8359 7.5117-0.64062 4.7891 2.7227 9.1914 7.5117 9.8359l58.879 7.8984 18.562 32.152-55.133-6c-4.8281-0.51172-9.1211 2.9492-9.6484 7.7539-0.52344 4.8047 2.9492 9.1211 7.7539 9.6484l67.871 7.3789 20.027 34.688-58.215-6.3281c-3.4531-0.36719-6.7852 1.3203-8.5234 4.3242-1.7344 3.0039-1.5312 6.7461 0.51562 9.543l34.305 46.859h-39.797l-40.172-54.883c-2.8516-3.9023-8.3359-4.7461-12.227-1.8945-3.9023 2.8516-4.7461 8.3281-1.8945 12.227l32.609 44.547h-37.543l-35.727-46.316c-2.9492-3.8281-8.4492-4.5469-12.273-1.582-3.8281 2.9492-4.5352 8.4453-1.582 12.273l27.48 35.633-71.414-0.003906c-4.8281 0-8.75 3.9219-8.75 8.75s3.9219 8.75 8.75 8.75h72.227l-28.297 36.684c-2.9531 3.8281-2.2461 9.3242 1.582 12.277 1.5938 1.2266 3.4727 1.8203 5.3359 1.8203 2.6211 0 5.2109-1.1719 6.9336-3.3984l36.543-47.371h37.109l-32.996 45.07c-2.8516 3.9023-2.0078 9.3789 1.8906 12.234 1.5586 1.1445 3.3672 1.6914 5.1641 1.6914 2.6953 0 5.3555-1.2383 7.0664-3.5781l40.566-55.43h39.988l-34.883 47.645c-2.0469 2.8047-2.2539 6.5391-0.51562 9.5469 1.7344 3.0117 5.1016 4.707 8.5234 4.3242l58.223-6.3203-19.863 34.402-68.031 7.3984c-4.8047 0.51953-8.2773 4.8359-7.7539 9.6406 0.51953 4.8086 4.8047 8.2617 9.6484 7.7539l55.297-6.0156-18.766 32.508-58.391 7.8359c-4.7891 0.64062-8.1523 5.0391-7.5078 9.8359 0.64453 4.7891 5.0273 8.1211 9.8398 7.5117l45.004-6.043-35.887 62.156c-2.4141 4.1875-0.98438 9.5391 3.2031 11.949 1.3789 0.80078 2.8828 1.1758 4.3672 1.1758 3.0234 0 5.9688-1.5664 7.5859-4.375l36.047-62.43 17.461 42.461c1.3906 3.375 4.6523 5.4258 8.0977 5.4258 1.1055 0 2.2344-0.21484 3.3242-0.66016 4.4688-1.8359 6.6016-6.9531 4.7656-11.418l-22.598-54.945 18.562-32.152 22.363 50.742c1.4453 3.2734 4.6445 5.2227 8.0117 5.2227 1.1797 0 2.375-0.25 3.5273-0.75 4.4219-1.9453 6.4258-7.1133 4.4766-11.543l-27.535-62.465 19.91-34.488 23.625 53.586c1.3984 3.1797 4.543 5.2188 8.0078 5.2188s6.6094-2.0469 8.0078-5.2188l23.621-53.586 19.922 34.5-27.547 62.449c-1.9453 4.418 0.058594 9.582 4.4727 11.543 1.1523 0.5 2.3438 0.75 3.5273 0.75 3.3672-0.003906 6.5703-1.9453 8.0156-5.2227l22.371-50.734 18.77 32.508-22.348 54.316c-1.8359 4.4688 0.29297 9.582 4.7695 11.418 1.0898 0.44922 2.2188 0.66016 3.3242 0.66016 3.4414 0 6.7031-2.0508 8.1016-5.4258l17.215-41.832 35.832 62.062c1.625 2.8125 4.5625 4.375 7.582 4.375 1.4844 0 2.9961-0.375 4.3672-1.1719 4.1875-2.418 5.6172-7.7656 3.1992-11.953l-36.094-62.504 45.676 6.125c4.7344 0.625 9.1992-2.7188 9.8359-7.5117 0.64062-4.7891-2.7227-9.1914-7.5117-9.8359l-59.051-7.918-18.562-32.152 55.293 6.0234c4.8125 0.5 9.125-2.9492 9.6484-7.75 0.51562-4.8047-2.9531-9.125-7.75-9.6484l-68.027-7.4062-19.867-34.402 58.227 6.3203c3.4219 0.36328 6.793-1.3203 8.5234-4.3242 1.7266-3 1.5312-6.7422-0.51953-9.5469l-34.594-47.246h40.008l40.262 55.012c1.7227 2.3398 4.375 3.5781 7.0742 3.5781 1.7852 0 3.5977-0.55469 5.1641-1.6914 3.8984-2.8516 4.7461-8.3281 1.8945-12.234l-32.707-44.672h37.539l35.812 46.445c1.7266 2.2344 4.3125 3.3984 6.9336 3.3984 1.8672 0 3.7461-0.59375 5.3477-1.8203 3.8203-2.9531 4.5312-8.4492 1.5781-12.277l-27.586-35.742h71.496c4.8281 0 8.75-3.9219 8.75-8.75s-3.9219-8.7422-8.75-8.7422zm-184.07-41.582-30.445 41.586h-41.57l20.789-36.016zm-87.176-50.332 20.789 47.152-20.789 36.008-20.789-36.008zm-87.176 50.332 51.227 5.5703 20.562 35.617h-41.645zm0 100.66 30.73-41.973h41.52l-21.023 36.406zm87.176 50.332-20.789-47.148 20.789-36.012 20.789 36.008zm87.172-50.34-51.223-5.5625-20.789-36h41.574z"/>
 </g>
</svg>
